PathFileType	4	(X/Y/Z)	./resultDataOpenSim/trcMotMarkerGrf/sub06/qtm-13-07.trc
DataRate	CameraRate	NumFrames	NumMarkers	Units	OrigDataRate	OrigDataStartFrame	OrigNumFrames
250.000000	250.000000	10	24	m	250.000000	260	519
Frame#	Time	L.Toe.Tip			R.Toe.Tip			L.Ankle.Lat			R.Ankle.Lat			L.Ankle.Med			R.Ankle.Med			L.Heel			R.Heel			L.Knee.Lat			R.Knee.Lat			L.Knee.Med			R.Knee.Med			L.Thigh.Upper			R.Thigh.Upper			L.ASIS			R.ASIS			V.Sacral			L.Acromium			R.Acromium			C7			L.Elbow			R.Elbow			L.Wrist.Lat			R.Wrist.Lat
		X1	Y1	Z1	X2	Y2	Z2	X3	Y3	Z3	X4	Y4	Z4	X5	Y5	Z5	X6	Y6	Z6	X7	Y7	Z7	X8	Y8	Z8	X9	Y9	Z9	X10	Y10	Z10	X11	Y11	Z11	X12	Y12	Z12	X13	Y13	Z13	X14	Y14	Z14	X15	Y15	Z15	X16	Y16	Z16	X17	Y17	Z17	X18	Y18	Z18	X19	Y19	Z19	X20	Y20	Z20	X21	Y21	Z21	X22	Y22	Z22	X23	Y23	Z23	X24	Y24	Z24

260	1.036	0.064377306	-0.015530355	-0.064982241	0.77154019	0.13292213	0.086836166	-0.037223586	0.059341584	-0.098508248	0.63670055	0.10134086	0.1033055	-0.030843156	0.077064538	-0.013307124	0.64936823	0.1357773	0.019502149	-0.11344732	0.060670282	-0.052650723	0.60124163	0.061859641	0.038105867	0.12469867	0.39832952	-0.11836322	0.5068394	0.46978025	0.11732051	0.1192857	0.40070935	0.0027356071	0.48352732	0.4402516	-0.0083354406	0.22818119	0.76312695	-0.18622055	0.29727203	0.77682183	0.15968973	0.31922402	0.80508841	-0.15830199	0.36789701	0.82578166	0.084034553	0.16673788	0.89499131	-0.0013592455	0.31513818	1.2974355	-0.21318148	0.30580005	1.2892406	0.14984008	0.23551468	1.3321304	-0.036518268	0.3463571	0.97239001	-0.2940307	0.14554334	1.0250849	0.20161258	0.59567024	0.94746227	-0.25025715	0.15129624	0.80384905	0.2929756
261	1.04	0.064454434	-0.015528531	-0.064958968	0.78198767	0.13468069	0.084868839	-0.035953527	0.060309008	-0.098825694	0.64744865	0.1012575	0.10086455	-0.029562594	0.077981645	-0.013572631	0.66002635	0.13612225	0.017243423	-0.11223318	0.062564238	-0.053037189	0.61272998	0.061414125	0.035465138	0.12990361	0.3975769	-0.11838803	0.514946	0.46841079	0.11634265	0.12426786	0.39986416	0.0029245888	0.49159476	0.43886437	-0.010007628	0.23431166	0.76173695	-0.18587617	0.30538353	0.7750681	0.15962057	0.32548095	0.80371192	-0.15848067	0.37541804	0.82443438	0.083812262	0.1747624	0.89308708	-0.00021197792	0.32194326	1.2959573	-0.2130356	0.31263731	1.2876939	0.15018826	0.24236083	1.3307897	-0.036240963	0.35528412	0.97089017	-0.29353121	0.1519209	1.0239233	0.20169801	0.60463675	0.94895219	-0.2490263	0.15610365	0.80311157	0.29413235
262	1.044	0.064536427	-0.015524265	-0.064931403	0.79180829	0.13587189	0.082864854	-0.034631549	0.061328782	-0.099149518	0.65751972	0.10096738	0.098329707	-0.028188093	0.078963099	-0.013826786	0.67010248	0.1362503	0.014894738	-0.11093829	0.06456064	-0.053345482	0.62346906	0.060887735	0.032688361	0.13521229	0.39678288	-0.11843768	0.52309869	0.46713703	0.11534074	0.12929038	0.39893988	0.0031947663	0.49986722	0.43773689	-0.011845018	0.24052033	0.76036264	-0.18551197	0.31348539	0.77332719	0.15945992	0.33193859	0.80235132	-0.15868443	0.38311392	0.8231656	0.083638237	0.18219425	0.89151473	0.00069892432	0.32876456	1.2944775	-0.21287124	0.31951922	1.2861491	0.15056843	0.24924426	1.3294582	-0.035933714	0.36411803	0.96941872	-0.29287926	0.15829086	1.0227798	0.20191647	0.6135264	0.95030057	-0.24781715	0.16113014	0.80235191	0.29528157
263	1.048	0.064622814	-0.015516676	-0.064901658	0.80103526	0.13647228	0.080821323	-0.033246909	0.062411408	-0.099483927	0.66695422	0.10044522	0.095706769	-0.026713197	0.079992451	-0.014095722	0.67961541	0.1361349	0.01246509	-0.10956121	0.066661208	-0.053608869	0.6334699	0.060252062	0.029799869	0.14062809	0.39595585	-0.11851051	0.53122803	0.46592863	0.1143008	0.13449968	0.39804295	0.003364992	0.50831295	0.43687545	-0.013802668	0.24681651	0.75899639	-0.18513396	0.32167056	0.77168168	0.15929838	0.33852624	0.80102527	-0.15889655	0.39102349	0.82200239	0.083516681	0.1893549	0.89018668	0.0014414811	0.33560828	1.293006	-0.21267884	0.32645417	1.2846108	0.15098662	0.25616498	1.3281363	-0.035591025	0.37287352	0.96798118	-0.2921338	0.16469698	1.021643	0.2022211	0.62233736	0.95150086	-0.24662863	0.1663389	0.80156984	0.29641638
264	1.052	0.064713024	-0.0155064	-0.064875635	0.80970086	0.13647447	0.078758195	-0.031801	0.063558927	-0.099832736	0.67577681	0.099671336	0.093014704	-0.025138055	0.08105937	-0.014401553	0.68857196	0.13575584	0.0099624885	-0.10808813	0.06886414	-0.053873482	0.64275372	0.05947538	0.026833005	0.14615238	0.39509946	-0.11862816	0.53927523	0.46476485	0.11319335	0.1399989	0.39728444	0.0032540413	0.51678524	0.43627132	-0.015728342	0.25321459	0.75763345	-0.1847461	0.32998112	0.77018027	0.1591863	0.34519711	0.79974705	-0.15910775	0.39905658	0.82090592	0.083391421	0.19656061	0.88895593	0.0021327423	0.34248111	1.2915527	-0.21245329	0.33344297	1.2830848	0.15144542	0.26312126	1.3268231	-0.035210154	0.38158115	0.96660809	-0.29138783	0.17115508	1.0205082	0.20258817	0.63107421	0.95255313	-0.24544355	0.17173383	0.80076489	0.29753117
265	1.056	0.06480492	-0.015496072	-0.064861105	0.81782819	0.13589945	0.076680845	-0.030298034	0.064765142	-0.10019514	0.68399723	0.098631901	0.090279256	-0.023458189	0.082158128	-0.014762882	0.69696584	0.1351023	0.0073954094	-0.10650129	0.071160132	-0.054176485	0.65133932	0.05853046	0.023818212	0.15178891	0.39421761	-0.11882821	0.54720853	0.4636351	0.1119909	0.14577714	0.39666344	0.0028472631	0.52511255	0.43591066	-0.017479001	0.25972119	0.75627816	-0.18435404	0.33838415	0.76883378	0.15911855	0.35193741	0.79851855	-0.15931237	0.40711771	0.81982461	0.083209343	0.20390089	0.88774215	0.0028193832	0.34938879	1.290128	-0.21219072	0.34048109	1.2815797	0.15194061	0.27011288	1.3255216	-0.034791957	0.39026411	0.96531098	-0.29068463	0.17767441	1.0193719	0.20300753	0.63974157	0.95346186	-0.24424255	0.1773603	0.79994098	0.29862363
266	1.06	0.0648975	-0.015488426	-0.064862121	0.82542079	0.13480486	0.074556184	-0.028725531	0.066021045	-0.10057155	0.69162819	0.097318606	0.087514983	-0.021661071	0.083284377	-0.015195339	0.70479051	0.13417053	0.0047786438	-0.10478178	0.073536078	-0.054533899	0.65923723	0.057395361	0.020781226	0.15754998	0.39331667	-0.11912416	0.55502777	0.46253064	0.11068455	0.15178382	0.39603101	0.0023124639	0.53322783	0.43578172	-0.019024169	0.26633169	0.75493753	-0.18396677	0.34679829	0.76762628	0.15904882	0.35874853	0.7973378	-0.15950766	0.41518794	0.81873775	0.082957329	0.21131542	0.886532	0.0034757628	0.35633434	1.288744	-0.21188509	0.34756177	1.2801043	0.15246555	0.27713964	1.3242395	-0.034337013	0.39893429	0.96407003	-0.29002172	0.18426779	1.018228	0.20346993	0.64833692	0.95423587	-0.24302543	0.18328119	0.79910367	0.29969321
267	1.064	0.064996804	-0.015483445	-0.064870919	0.83246597	0.13327008	0.072336163	-0.027047685	0.067317606	-0.10097414	0.69868905	0.095733485	0.084725377	-0.019732101	0.084444495	-0.015699187	0.71204269	0.13295451	0.0021316556	-0.10290717	0.075983556	-0.054947867	0.66645923	0.056051276	0.017750898	0.16344972	0.39240042	-0.11948792	0.56276101	0.46143805	0.10929445	0.15801634	0.39522944	0.0018109012	0.54117376	0.43586234	-0.020398977	0.27304092	0.75361673	-0.183595	0.35514983	0.76653432	0.15892489	0.36563698	0.79620724	-0.15969549	0.42329466	0.81765044	0.082644335	0.21874405	0.8853457	0.004058987	0.36331935	1.2874126	-0.21153076	0.35467965	1.2786655	0.15301622	0.28419954	1.322981	-0.033843677	0.40762548	0.9628546	-0.28944419	0.19094644	1.0170717	0.20396489	0.65685289	0.95488922	-0.24181549	0.18951064	0.79825376	0.30073642
268	1.068	0.065115867	-0.015480486	-0.064862792	0.83895399	0.13137022	0.06998442	-0.025219014	0.068641414	-0.10142697	0.70519771	0.093892219	0.081919109	-0.017658874	0.085657178	-0.016255315	0.71872124	0.13143487	-0.00052247019	-0.10086001	0.078506316	-0.055410838	0.67302714	0.054484202	0.01476285	0.1694978	0.39146461	-0.11988231	0.57045081	0.46033915	0.10786379	0.16451665	0.39423028	0.0013477821	0.54902428	0.43610832	-0.021620313	0.27984774	0.7523215	-0.18324826	0.36343735	0.76554616	0.15874612	0.37261021	0.79513209	-0.15988002	0.4314562	0.81657429	0.082276493	0.22617674	0.88421077	0.0045440011	0.37034758	1.2861422	-0.21112369	0.3618312	1.2772702	0.15359171	0.29129188	1.3217445	-0.033309088	0.41639276	0.96162827	-0.28908357	0.19772373	1.015913	0.20448308	0.66528577	0.95543149	-0.24064008	0.19596497	0.79738722	0.30174686
269	1.072	0.065264257	-0.015485193	-0.064808321	0.84490076	0.12915115	0.067470069	-0.023210266	0.069979733	-0.10195126	0.71116991	0.091818139	0.079119262	-0.015429515	0.086936905	-0.016843729	0.72483119	0.12958404	-0.0031580437	-0.098639698	0.081122886	-0.055901085	0.67896432	0.052687905	0.011854949	0.17570509	0.39049908	-0.12029922	0.57812874	0.45921755	0.10643565	0.17131629	0.39310464	0.00083247699	0.5568378	0.43646813	-0.022687601	0.28675034	0.75105669	-0.18292993	0.37174945	0.764668	0.15860255	0.3796715	0.79411407	-0.16006373	0.43967169	0.81552081	0.081856515	0.23363591	0.88313108	0.0049240849	0.37742292	1.2849384	-0.21066014	0.36901393	1.2759232	0.15419259	0.29841898	1.3205292	-0.03273007	0.42524783	0.96036099	-0.28904742	0.20459203	1.0147957	0.20503743	0.67363798	0.95585961	-0.23950918	0.20252322	0.7965014	0.30271937
